<svg width="46" height="46" viewBox="0 0 46 46" fill="none" xmlns="http://www.w3.org/2000/svg">
<path d="M40.9357 16.2918C38.2131 9.02 31.2211 3.8335 22.9996 3.8335C19.6808 3.8335 16.5596 4.67779 13.8379 6.16225L27.3456 16.2918H40.9357Z" fill="#E53935"/>
<path d="M27.3456 29.7085L13.8379 39.8381C16.5596 41.3225 19.6808 42.1668 22.9996 42.1668C31.2211 42.1668 38.2131 36.9803 40.9357 29.7085H27.3456Z" fill="#283593"/>
<path d="M41.7819 19.1667C41.5806 18.1758 41.2836 17.2213 40.9357 16.2917H27.3465L13.8388 6.16211C13.007 6.6154 12.225 7.14536 11.4736 7.71269L26.8338 19.1667H41.7819Z" fill="white"/>
<path d="M40.9366 29.7085C41.2845 28.7789 41.5816 27.8244 41.7828 26.8335H26.8338L11.4727 38.2865C12.224 38.8539 13.006 39.3838 13.8378 39.8371L27.3465 29.7085H40.9366Z" fill="white"/>
<path d="M41.7816 26.8336C42.0336 25.5945 42.1668 24.3132 42.1668 23.0002C42.1668 21.6873 42.0336 20.406 41.7816 19.1669H26.8335L11.4724 7.71387C9.3027 9.35262 7.4809 11.4265 6.16895 13.8271L18.4002 23.0002L6.16895 32.1734C7.47995 34.574 9.3027 36.6479 11.4724 38.2866L26.8335 26.8336H41.7816Z" fill="#2E7D32"/>
<path d="M6.16908 13.8267C5.73113 14.6278 5.36792 15.4731 5.04688 16.3385L13.9297 22.9998L5.04688 29.6612C5.36792 30.5266 5.73113 31.3718 6.16908 32.173L18.4003 22.9998L6.16908 13.8267Z" fill="#FFC107"/>
<path d="M5.04626 16.3389C4.2748 18.4165 3.83301 20.6542 3.83301 23.0002C3.83301 25.3462 4.2748 27.584 5.04626 29.6616L13.929 23.0002L5.04626 16.3389Z" fill="#263238"/>
</svg>
