<svg width="46" height="46" viewBox="0 0 46 46" fill="none" xmlns="http://www.w3.org/2000/svg">
<path d="M22.9997 42.1668C33.5851 42.1668 42.1663 33.5856 42.1663 23.0002C42.1663 12.4147 33.5851 3.8335 22.9997 3.8335C12.4142 3.8335 3.83301 12.4147 3.83301 23.0002C3.83301 33.5856 12.4142 42.1668 22.9997 42.1668Z" fill="#388E3C"/>
<path d="M26.833 21.0835V41.7816C29.6706 41.2056 32.2677 39.9866 34.4997 38.3067V21.0835H26.833Z" fill="#263238"/>
<path d="M34.5 38.3076C39.1479 34.8097 42.1667 29.2648 42.1667 23.0002C42.1667 22.3533 42.1322 21.7141 42.0699 21.0835H34.5V38.3076Z" fill="#FF8F00"/>
<path d="M19.167 21.0835V41.7816C20.4061 42.0336 21.6874 42.1668 23.0003 42.1668C24.3132 42.1668 25.5945 42.0336 26.8337 41.7816V21.0835H19.167Z" fill="#D50000"/>
<path d="M26.0106 15.7262L25.9339 16.8206L26.5578 17.0496L26.3029 17.3045L26.1505 17.2787C26.1505 17.2787 26.2655 17.6476 25.9847 17.7492C26.0355 17.9275 26.0863 18.0798 26.0863 18.0798C26.0863 18.0798 25.8822 18.0415 25.794 17.8249C25.5899 17.7741 25.565 17.456 25.565 17.456C25.565 17.456 25.5774 17.7741 25.3101 17.8374C25.3225 18.0415 25.3484 18.2063 25.3484 18.2063C25.3484 18.2063 24.7887 17.7732 25.1577 17.341C24.8395 17.5575 24.598 17.456 24.598 17.456L24.4322 17.7109C24.4322 17.7109 24.3556 17.1886 24.7763 17.0362C25.197 16.8838 25.5401 16.9854 25.5784 16.0942C25.6167 15.2029 25.5784 15.6744 25.5784 15.6744L26.0106 15.7262Z" fill="#FF8F00"/>
<path d="M25.3493 18.2562C25.3387 18.2562 25.3292 18.2533 25.3205 18.2466C25.3081 18.2361 25.0196 18.0099 24.987 17.71C24.9784 17.6275 24.9909 17.547 25.0215 17.4713C24.8356 17.5509 24.6861 17.5307 24.619 17.5135L24.4734 17.7377C24.4609 17.755 24.4427 17.7627 24.4226 17.7579C24.4025 17.7531 24.3881 17.7377 24.3852 17.7176C24.3842 17.7119 24.3085 17.1551 24.7609 16.9912C24.8375 16.9634 24.9104 16.9433 24.9803 16.9251C25.2937 16.8427 25.5007 16.788 25.5304 16.0923C25.5381 15.9092 25.5429 15.7895 25.5448 15.7099C25.5352 15.7003 25.5295 15.6869 25.5304 15.6716C25.5419 15.5355 25.5448 15.502 25.5898 15.502C25.5917 15.502 25.5937 15.502 25.5965 15.5029C25.6301 15.5048 25.6435 15.5058 25.6435 15.6342L26.0172 15.6783C26.0422 15.6812 26.0613 15.7032 26.0594 15.73L25.9866 16.788L26.576 17.0046C26.5913 17.0104 26.6018 17.0238 26.6057 17.0391C26.6095 17.0545 26.6047 17.0717 26.5922 17.0832L26.3373 17.3381C26.3268 17.3496 26.3067 17.3525 26.2961 17.3525L26.2137 17.3381C26.2377 17.4809 26.2214 17.686 26.0431 17.777C26.0882 17.9352 26.1322 18.0645 26.1332 18.0665C26.138 18.0827 26.1351 18.1 26.1236 18.1134C26.1121 18.1259 26.0958 18.1335 26.0786 18.1287C26.069 18.1268 25.8601 18.0856 25.7595 17.8671C25.6646 17.8345 25.6061 17.754 25.5716 17.6735C25.5342 17.7579 25.47 17.8374 25.3608 17.8757C25.3742 18.0569 25.3962 18.2025 25.3962 18.2025C25.3991 18.2227 25.3895 18.2418 25.3732 18.2514C25.3665 18.2543 25.3579 18.2562 25.3493 18.2562ZM25.1586 17.295C25.172 17.295 25.1845 17.3007 25.194 17.3113C25.2103 17.3295 25.2113 17.3563 25.195 17.3736C25.1087 17.4752 25.0704 17.5854 25.0829 17.7004C25.1001 17.8575 25.2046 17.9975 25.2851 18.0827C25.2774 18.0176 25.2688 17.9332 25.264 17.8422C25.2621 17.8192 25.2784 17.7981 25.3004 17.7924C25.5256 17.7387 25.5189 17.4704 25.5189 17.4589C25.518 17.433 25.5381 17.411 25.564 17.409H25.5668C25.5917 17.409 25.6128 17.4282 25.6147 17.4531C25.6147 17.456 25.6397 17.7377 25.8074 17.779C25.8227 17.7828 25.8342 17.7933 25.84 17.8077C25.8831 17.9112 25.955 17.9687 26.0125 17.9994C25.9923 17.939 25.9665 17.8537 25.9415 17.7617C25.9339 17.7377 25.9473 17.7119 25.9712 17.7032C26.2041 17.6189 26.1112 17.3046 26.1073 17.2912C26.1025 17.2749 26.1064 17.2586 26.1169 17.2452C26.1284 17.2327 26.1485 17.2289 26.161 17.2289L26.2894 17.25L26.4734 17.066L25.9185 16.8666C25.8984 16.859 25.886 16.8398 25.8879 16.8177L25.9607 15.7684L25.6416 15.731C25.6387 15.8172 25.6339 15.9351 25.6262 16.0971C25.5937 16.8647 25.334 16.9327 25.0062 17.019C24.9372 17.0382 24.8663 17.0564 24.7925 17.0822C24.5452 17.1723 24.4877 17.4033 24.4772 17.5566L24.5587 17.4311C24.573 17.411 24.5951 17.4052 24.6181 17.4129C24.6257 17.4177 24.8433 17.4991 25.1317 17.3027C25.1394 17.2979 25.149 17.295 25.1586 17.295Z" fill="#263238"/>
<path d="M24.4323 12.2647C24.4323 12.2647 20.7408 11.5651 19.7863 10.877C19.8629 11.132 20.3335 11.6916 20.3335 11.6916L17.3933 10.2915C17.3933 10.2915 17.4825 10.8646 18.1571 11.5009C18.1571 11.5009 17.0119 11.0304 16.7187 10.6355C16.4264 10.2407 16.6171 11.1703 17.0752 11.59C16.7695 11.4118 16.642 11.3102 16.4005 11.1195C16.159 10.9288 16.5529 11.6926 16.8078 11.8958C16.3622 11.6159 16.5404 11.7942 16.3238 11.6035C16.1072 11.4128 16.4139 11.9763 16.7944 12.2657C17.3195 12.6634 18.3852 12.9279 18.3852 12.9279L17.9779 13.0429C17.9779 13.0429 18.6401 13.4377 19.3656 13.2844C18.551 13.4368 18.6142 13.4751 18.6142 13.4751C18.6142 13.4751 18.9707 14.0731 20.4341 13.6917C20.1543 13.8699 19.6962 13.984 19.6962 13.984C19.6962 13.984 20.4475 14.4679 21.6435 13.9073C21.1854 14.1622 20.7657 14.327 20.7657 14.327C20.7657 14.327 21.3004 14.7343 22.115 14.3903C21.7336 14.6193 21.7461 14.6701 21.7461 14.6701C21.7461 14.6701 22.1534 14.81 22.6239 14.6826C22.2933 14.9624 22.4457 14.8733 22.4457 14.8733C22.4457 14.8733 23.0437 14.9883 23.4002 14.7209C23.1203 14.9375 23.1452 15.0266 23.1452 15.0266C23.1452 15.0266 23.8199 15.1541 24.3039 14.8867C23.9857 15.1924 23.9857 15.1924 23.9857 15.1924C23.9857 15.1924 24.6987 15.6888 25.3092 15.1292C25.9206 14.5695 24.8894 12.787 24.8894 12.787L24.4323 12.2647Z" fill="#FF8F00"/>
<path d="M24.6515 15.4404C24.2691 15.4404 23.9653 15.2344 23.9605 15.2306C23.9481 15.2219 23.9404 15.2095 23.9404 15.1951C23.9404 15.1807 23.9442 15.1673 23.9557 15.1568L24.0889 15.0284C23.6424 15.1644 23.1622 15.0772 23.1402 15.0724C23.121 15.0696 23.1076 15.0561 23.1028 15.0389C23.0961 15.0178 23.0961 14.9718 23.1536 14.8942C22.8565 14.9814 22.5345 14.9373 22.4569 14.9239C22.4339 14.9354 22.3975 14.9459 22.3745 14.9134C22.3524 14.8808 22.3544 14.8597 22.4569 14.7667C22.0592 14.8242 21.7487 14.7198 21.7324 14.714C21.7171 14.7092 21.7056 14.6958 21.7017 14.6805C21.6979 14.6613 21.6893 14.6306 21.8052 14.5396C21.167 14.6795 20.7587 14.3796 20.7396 14.3642C20.7252 14.3537 20.7194 14.3364 20.7204 14.3192C20.7233 14.3019 20.7348 14.2876 20.7501 14.2809C20.752 14.2809 20.8479 14.2425 20.9954 14.1764C20.1857 14.3422 19.6979 14.0394 19.6729 14.0231C19.6567 14.0125 19.649 13.9943 19.6519 13.9751C19.6557 13.956 19.6701 13.9406 19.6883 13.9359C19.6902 13.9359 19.855 13.8937 20.0448 13.8228C18.8957 14.0077 18.5891 13.5219 18.5766 13.4979C18.5699 13.4874 18.567 13.4749 18.5689 13.4624C18.5737 13.4375 18.5795 13.4097 18.7999 13.3532C18.3284 13.2995 17.9767 13.0935 17.9566 13.082C17.9393 13.0714 17.9316 13.0542 17.9336 13.0341C17.9364 13.0149 17.9499 12.9996 17.9681 12.9948L18.2077 12.9277C17.8828 12.8357 17.1736 12.6105 16.7682 12.3038C16.475 12.0815 16.1913 11.6646 16.2066 11.5669C16.2095 11.5486 16.2268 11.5256 16.244 11.5189C16.2747 11.5094 16.313 11.5276 16.3571 11.5669C16.4577 11.656 16.4654 11.6589 16.497 11.6704C16.5162 11.6771 16.5392 11.6857 16.5794 11.7058C16.406 11.4681 16.2335 11.1414 16.2939 11.0647C16.314 11.0388 16.3542 11.0216 16.4319 11.0819L16.4414 11.0896C16.5929 11.2094 16.7012 11.2937 16.8401 11.3876C16.6207 11.0704 16.5028 10.6785 16.5402 10.5539C16.5536 10.5069 16.5861 10.4954 16.5996 10.4945C16.6475 10.4887 16.6935 10.5184 16.7586 10.6085C16.9618 10.8807 17.601 11.1989 17.9479 11.357C17.4295 10.7925 17.3509 10.322 17.3471 10.2999C17.3442 10.2817 17.3519 10.2645 17.3662 10.2539C17.3806 10.2434 17.3988 10.2396 17.4161 10.2491L20.1665 11.5582C20.0189 11.3704 19.7947 11.0656 19.7429 10.8912C19.7372 10.8711 19.7439 10.85 19.7611 10.8376C19.7784 10.8261 19.8004 10.8261 19.8177 10.8376C20.753 11.5113 24.4071 12.2109 24.4445 12.2176C24.455 12.2195 24.4646 12.2252 24.4704 12.2329L24.9284 12.7542C24.9773 12.8366 25.9778 14.5837 25.3463 15.1644C25.1134 15.3734 24.869 15.4404 24.6515 15.4404ZM24.065 15.1836C24.2327 15.2833 24.7895 15.542 25.2782 15.0926C25.8552 14.5645 24.8585 12.8271 24.8499 12.8098L24.4081 12.3086C24.1206 12.253 20.9868 11.6435 19.8972 11.0053C20.0457 11.2726 20.3677 11.6569 20.3716 11.6617C20.3869 11.679 20.3869 11.7039 20.3735 11.7211C20.3591 11.7394 20.3352 11.747 20.3141 11.7355L17.4649 10.3795C17.5215 10.5644 17.6949 10.9995 18.1904 11.4672C18.2077 11.4835 18.2105 11.5084 18.1981 11.5276C18.1856 11.5477 18.1597 11.5563 18.1396 11.5458C18.0917 11.5266 16.9781 11.0647 16.681 10.6651C16.6571 10.6315 16.6389 10.6124 16.6264 10.6028C16.6226 10.7341 16.7864 11.2611 17.1084 11.5554C17.1266 11.5726 17.1286 11.5994 17.1142 11.6186C17.0998 11.6387 17.072 11.6445 17.0519 11.632C16.75 11.4547 16.6187 11.3522 16.3849 11.1682C16.4376 11.3234 16.6666 11.7211 16.8391 11.8591C16.8593 11.8754 16.8621 11.9032 16.8487 11.9243C16.8334 11.9444 16.8047 11.9521 16.7845 11.9368C16.5651 11.7988 16.4989 11.7748 16.4644 11.7604C16.429 11.747 16.4117 11.7403 16.3542 11.6914C16.4386 11.8323 16.6159 12.069 16.8267 12.2281C17.3365 12.6153 18.3897 12.8798 18.4003 12.8817C18.4214 12.8874 18.4367 12.9056 18.4367 12.9277C18.4377 12.9488 18.4223 12.9689 18.4022 12.9746L18.1118 13.0561C18.3159 13.1529 18.7894 13.3379 19.2963 13.2497C19.3164 13.2459 19.3375 13.242 19.3596 13.2382C19.3826 13.2305 19.4104 13.2506 19.4152 13.2756C19.4209 13.3014 19.4037 13.3264 19.3787 13.3321C19.3567 13.3369 19.3337 13.3417 19.3126 13.3446C18.9082 13.4222 18.7501 13.4663 18.6887 13.4883C18.798 13.6062 19.2331 13.956 20.4252 13.6455C20.4492 13.6407 20.4732 13.6522 20.4818 13.6733C20.4914 13.6944 20.4837 13.7202 20.4626 13.7327C20.2661 13.8582 19.9902 13.9512 19.833 13.9981C20.0764 14.1016 20.7242 14.2885 21.626 13.8649C21.649 13.8515 21.6787 13.863 21.6893 13.886C21.7008 13.9081 21.6922 13.9368 21.6692 13.9493C21.3366 14.1333 21.0213 14.2732 20.8737 14.3355C21.0443 14.4275 21.4938 14.6019 22.0985 14.347C22.1224 14.3374 22.1483 14.346 22.1598 14.369C22.1713 14.3911 22.1627 14.4189 22.1407 14.4313C21.9605 14.5396 21.8723 14.6067 21.8301 14.6441C21.9614 14.6766 22.2729 14.7284 22.6131 14.6374C22.6352 14.6268 22.6572 14.6421 22.6677 14.6604C22.6783 14.6805 22.6735 14.7054 22.6562 14.7198C22.5949 14.7725 22.5518 14.8099 22.5211 14.8367C22.684 14.8568 23.1047 14.8846 23.3721 14.6833C23.3942 14.6671 23.4239 14.6718 23.4392 14.6929C23.4545 14.714 23.4517 14.7437 23.4296 14.76C23.2811 14.8741 23.2255 14.9488 23.2054 14.9871C23.3721 15.0082 23.8934 15.0581 24.2816 14.8443C24.3027 14.8319 24.3285 14.8376 24.3429 14.8587C24.3573 14.8779 24.3554 14.9047 24.3372 14.921L24.065 15.1836Z" fill="#263238"/>
<path d="M25.043 14.1602L25.1455 15.523L25.3746 15.2422L25.0689 16.3625L25.4254 16.0568V16.4775L25.8585 15.9676L26.2907 16.4516L26.2016 14.3011L24.9414 13.7788L25.043 14.1602Z" fill="#FF8F00"/>
<path d="M25.4252 16.5247C25.4195 16.5247 25.4137 16.5237 25.408 16.5218C25.3888 16.5151 25.3773 16.4969 25.3773 16.4768V16.1615L25.0994 16.3992C25.085 16.4135 25.062 16.4174 25.0428 16.403C25.0246 16.3915 25.017 16.3704 25.0227 16.3503L25.269 15.4466L25.1818 15.552C25.1693 15.5683 25.1482 15.5721 25.13 15.5683C25.1109 15.5625 25.0974 15.5462 25.0965 15.5261L24.9959 14.1691L24.8962 13.7906C24.8914 13.7724 24.8972 13.7542 24.9106 13.7417C24.9269 13.7302 24.9441 13.7273 24.9614 13.734L26.2206 14.2563C26.2379 14.263 26.2484 14.2793 26.2494 14.2985L26.3385 16.449C26.3394 16.4691 26.327 16.4873 26.3088 16.495C26.2906 16.5046 26.2685 16.4979 26.2551 16.4825L25.8593 16.0398L25.4626 16.5065C25.453 16.519 25.4396 16.5247 25.4252 16.5247ZM25.4252 16.0101C25.4319 16.0101 25.4396 16.011 25.4453 16.0139C25.4635 16.0225 25.4731 16.0388 25.4731 16.058V16.3474L25.821 15.9372C25.8306 15.9267 25.843 15.92 25.8565 15.92C25.8708 15.92 25.8833 15.9257 25.8929 15.9363L26.236 16.3196L26.1535 14.3339L25.0122 13.8605L25.0888 14.149C25.0898 14.1519 25.0907 14.1547 25.0907 14.1576L25.1837 15.3996L25.3361 15.2137C25.3495 15.1936 25.3763 15.1926 25.3955 15.2003C25.4156 15.2118 25.4262 15.2338 25.4194 15.2559L25.1559 16.2267L25.3945 16.0225C25.4032 16.0139 25.4147 16.0101 25.4252 16.0101Z" fill="#263238"/>
<path d="M26.8887 16.1085L26.8763 16.8723C26.8763 16.8723 26.354 16.8464 26.1891 17.0247C26.0233 17.2029 26.2524 17.6869 26.2524 17.6869L26.3291 17.4962C26.3291 17.4962 26.4814 17.5086 26.6731 17.2796C26.5715 17.7127 26.7239 17.9418 26.9021 18.0175C26.8513 17.9284 26.8897 17.7252 26.8897 17.7252C26.8897 17.7252 27.1571 17.6993 27.1187 17.0889C27.2845 17.4329 27.5643 17.4454 27.5643 17.4454L27.5385 17.7252C27.5385 17.7252 28.1623 17.2547 27.4369 16.8982C27.7675 16.924 28.01 17.1397 28.01 17.1397C28.01 17.1397 27.9333 16.6557 27.3986 16.6816C27.3727 16.4775 27.3353 15.5747 27.3353 15.5747L26.9021 15.7913L26.8887 16.1085Z" fill="#FF8F00"/>
<path d="M26.9009 18.0656C26.8942 18.0656 26.8875 18.0646 26.8818 18.0618C26.7965 18.0253 26.5444 17.8768 26.5971 17.4226C26.4946 17.5098 26.4084 17.5347 26.3614 17.5414L26.2972 17.7043C26.2895 17.7225 26.2732 17.734 26.2541 17.734C26.2359 17.7292 26.2167 17.7244 26.209 17.7072C26.1841 17.6545 25.9714 17.1897 26.1525 16.9923C26.3001 16.8341 26.6891 16.8207 26.8281 16.8226L26.8406 16.1077V16.1068L26.853 15.7886C26.854 15.7704 26.8636 15.756 26.8789 15.7474L27.3121 15.5308C27.3264 15.5251 27.3446 15.5241 27.3581 15.5327C27.3724 15.5413 27.3801 15.5548 27.3811 15.572C27.382 15.5806 27.4156 16.3713 27.4405 16.6319C27.9714 16.6338 28.0557 17.1274 28.0567 17.1312C28.0596 17.1513 28.05 17.1715 28.0327 17.1811C28.0126 17.1897 27.9915 17.1878 27.9771 17.1743C27.9752 17.1734 27.8612 17.0728 27.6868 17.0038C27.7749 17.0852 27.8238 17.1753 27.8324 17.2721C27.8574 17.5376 27.5775 17.7522 27.566 17.7618C27.5497 17.7743 27.5306 17.7743 27.5133 17.7656C27.4961 17.7561 27.4874 17.7378 27.4894 17.7187L27.5114 17.4839C27.4366 17.4676 27.2919 17.4178 27.1683 17.2606C27.153 17.6334 27.0025 17.734 26.9306 17.7608C26.9201 17.8366 26.9153 17.9458 26.9431 17.9928C26.9527 18.011 26.9508 18.033 26.9364 18.0483C26.9278 18.0598 26.9144 18.0656 26.9009 18.0656ZM26.6719 17.2309C26.6796 17.2309 26.6872 17.2328 26.693 17.2357C26.7131 17.2462 26.7227 17.2683 26.7179 17.2903C26.6336 17.6516 26.7351 17.8289 26.8271 17.9132C26.8214 17.8222 26.8386 17.7302 26.8415 17.7158C26.8454 17.6947 26.8616 17.6784 26.8837 17.6765C26.8846 17.6765 27.1031 17.6391 27.0696 17.091C27.0677 17.0689 27.083 17.0478 27.1051 17.0411C27.1281 17.0373 27.1501 17.0469 27.1606 17.067C27.3101 17.3785 27.5555 17.3957 27.566 17.3967C27.5794 17.3976 27.5909 17.4034 27.5996 17.4139C27.6082 17.4235 27.612 17.436 27.6111 17.4494L27.5967 17.6037C27.6657 17.528 27.7491 17.4091 27.7366 17.2826C27.7241 17.1542 27.6159 17.0392 27.4136 16.9405C27.3935 16.93 27.383 16.907 27.3897 16.8849C27.3954 16.8638 27.4136 16.8495 27.4357 16.8495C27.4366 16.8495 27.4386 16.8495 27.4395 16.8495C27.6408 16.8648 27.8094 16.9472 27.9158 17.0133C27.8564 16.8907 27.7232 16.7278 27.4366 16.7278C27.4242 16.7278 27.4127 16.7278 27.3993 16.7287C27.3993 16.7287 27.3983 16.7287 27.3974 16.7287C27.3734 16.7287 27.3523 16.7105 27.3494 16.6866C27.3284 16.515 27.2986 15.8701 27.2891 15.6496L26.9479 15.8202L26.9364 16.1096L26.923 16.8734C26.923 16.8868 26.9172 16.8983 26.9076 16.907C26.8971 16.9166 26.8789 16.9185 26.8731 16.9204C26.7275 16.9118 26.3441 16.9252 26.2234 17.0584C26.1304 17.1581 26.1918 17.3996 26.2502 17.5596L26.2819 17.4781C26.2905 17.458 26.3106 17.4408 26.3307 17.4484C26.3413 17.4484 26.4716 17.4446 26.6336 17.2491C26.6451 17.2366 26.6575 17.2309 26.6719 17.2309Z" fill="#263238"/>
<path d="M19.6907 12.1985C19.684 12.1985 19.6783 12.1975 19.6715 12.1946L18.1382 11.5439C18.1143 11.5334 18.1028 11.5056 18.1133 11.4816C18.1238 11.4567 18.1497 11.4462 18.1756 11.4567L19.7089 12.1074C19.7329 12.118 19.7444 12.1457 19.7338 12.1697C19.7271 12.1879 19.7089 12.1985 19.6907 12.1985Z" fill="#263238"/>
<path d="M19.499 12.627C19.4932 12.627 19.4865 12.6261 19.4808 12.6232L17.0581 11.6342C17.0332 11.6246 17.0217 11.5968 17.0322 11.5729C17.0418 11.5489 17.0696 11.5336 17.0936 11.547L19.5162 12.536C19.5411 12.5456 19.5526 12.5734 19.5421 12.5973C19.5354 12.6155 19.5172 12.627 19.499 12.627Z" fill="#263238"/>
<path d="M18.6806 12.653C18.6749 12.653 18.6691 12.6521 18.6634 12.6501L16.7908 11.94C16.7659 11.9304 16.7534 11.9026 16.763 11.8787C16.7726 11.8538 16.7985 11.8413 16.8243 11.8509L18.6969 12.561C18.7218 12.5706 18.7343 12.5984 18.7247 12.6223C18.718 12.6415 18.7007 12.653 18.6806 12.653Z" fill="#263238"/>
<path d="M23.1378 12.812C23.1331 12.812 23.1283 12.812 23.1244 12.8101C23.0257 12.7823 20.7219 12.1038 20.3031 11.7272C20.283 11.709 20.282 11.6793 20.2993 11.6601C20.3165 11.6409 20.3453 11.638 20.3664 11.6563C20.7708 12.0185 23.1273 12.7114 23.1503 12.7181C23.1762 12.7258 23.1906 12.7516 23.1829 12.7775C23.1781 12.7986 23.158 12.812 23.1378 12.812Z" fill="#263238"/>
<path d="M22.781 13.9113C22.5644 13.9113 22.4101 13.8893 22.3929 13.8864C22.3727 13.8826 22.3574 13.8673 22.3536 13.8481C22.3497 13.828 22.3584 13.8078 22.3756 13.7973C22.3785 13.7954 22.5884 13.6718 22.8989 13.4676C22.3852 13.5836 21.7891 13.598 21.7594 13.5989C21.7393 13.5989 21.7201 13.5865 21.7134 13.5673C21.7057 13.5481 21.7124 13.5261 21.7287 13.5136L22.2232 13.1236L21.1422 13.2731C21.1202 13.2712 21.0972 13.2626 21.0905 13.2415C21.0828 13.2204 21.0914 13.1955 21.1106 13.184L21.5399 12.9291L20.9209 13.0134C20.8998 13.0143 20.8796 13.0048 20.8701 12.9856C20.8614 12.9664 20.8662 12.9434 20.8825 12.93L21.3262 12.54L20.4149 12.6789C20.3947 12.6799 20.3727 12.6703 20.3631 12.6511C20.3545 12.631 20.3602 12.608 20.3775 12.5936L20.8241 12.2343L20.181 12.1614C20.159 12.1586 20.1408 12.1413 20.1389 12.1183C20.1369 12.0953 20.1504 12.0752 20.1714 12.0675L20.6985 11.895C20.7244 11.8893 20.7512 11.9008 20.7589 11.9257C20.7666 11.9506 20.7531 11.9784 20.7282 11.9861L20.4101 12.0896L20.9486 12.1499C20.9678 12.1518 20.9831 12.1662 20.9889 12.1844C20.9946 12.2026 20.9879 12.2228 20.9726 12.2352L20.5749 12.5553L21.4729 12.4183C21.4949 12.4192 21.515 12.4269 21.5236 12.4451C21.5332 12.4652 21.5284 12.4873 21.5121 12.5016L21.0646 12.8955L21.7613 12.8006C21.7814 12.7968 21.8054 12.8112 21.8131 12.8323C21.8207 12.8533 21.8121 12.8783 21.7929 12.8898L21.3655 13.1437L22.3842 13.0028C22.4034 13.0028 22.4264 13.0124 22.435 13.0316C22.4436 13.0508 22.4379 13.0747 22.4206 13.0881L21.9051 13.4954C22.1753 13.4801 22.7618 13.4341 23.1614 13.2942C23.1854 13.2865 23.2094 13.2951 23.2209 13.3172C23.2314 13.3383 23.2247 13.3651 23.2046 13.3776C22.9199 13.5711 22.6832 13.7197 22.5481 13.8031C22.8874 13.8232 23.7661 13.8289 24.1639 13.2434C24.1773 13.2223 24.2079 13.2166 24.23 13.2309C24.2511 13.2453 24.2568 13.275 24.2424 13.2971C23.8907 13.8203 23.2122 13.9113 22.781 13.9113Z" fill="#263238"/>
<path d="M25.2597 14.1864L25.1074 14.6828L24.6493 13.9449C24.6493 13.9449 24.2545 14.1864 23.9238 14.2123C23.9622 13.8174 24.3819 13.5251 24.3819 13.5251C24.3819 13.5251 23.6565 12.7364 24.3695 11.6411C25.0825 10.5457 26.2785 11.0555 26.2785 11.0555C26.2785 11.0555 27.3604 11.297 26.8899 11.7934C26.7624 11.6152 26.2152 11.5011 26.0628 11.8193C25.9105 12.1375 26.1778 12.3924 26.1778 12.3924L26.9416 13.1562L27.0183 13.3728C27.0183 13.3728 29.6403 15.2818 29.9585 15.5108C30.2766 15.7398 29.4112 15.9689 28.4817 15.3325C29.2071 15.8673 29.1563 15.8414 29.1563 15.8414C29.1563 15.8414 29.2713 16.3762 28.0236 15.5491C28.52 15.9564 28.151 15.9823 27.8961 15.8414C27.6412 15.7015 27.578 15.5999 27.578 15.5999L28.0111 16.173L27.4764 15.8807L27.8453 16.5678C27.8453 16.5678 27.1582 16.4404 27.0183 16.0206C26.955 16.3771 26.611 16.6062 26.611 16.6062C26.611 16.6062 26.7768 15.8932 26.6493 15.6133C26.5219 15.3335 26.1021 14.633 26.1021 14.633L25.2597 14.1864Z" fill="#FF8F00"/>
<path d="M26.6092 16.6518C26.5997 16.6518 26.5901 16.6489 26.5824 16.6431C26.5661 16.6316 26.5585 16.6125 26.5623 16.5923C26.5642 16.5856 26.7233 15.8937 26.6035 15.6311C26.4885 15.3753 26.1205 14.7581 26.0649 14.6671L25.2887 14.254L25.1526 14.6958C25.1468 14.714 25.1315 14.7265 25.1133 14.7293C25.0874 14.7351 25.0759 14.7226 25.0663 14.7073L24.6322 14.0087C24.521 14.0719 24.2057 14.2368 23.9269 14.2598C23.9096 14.2588 23.8991 14.2559 23.8885 14.2454C23.879 14.2348 23.8742 14.2214 23.8751 14.207C23.9077 13.8659 24.2019 13.6023 24.3121 13.5151C24.1751 13.3359 23.694 12.5865 24.3284 11.6138C25.0548 10.4993 26.2844 11.0043 26.2968 11.011C26.316 11.0139 26.9495 11.1586 27.0434 11.47C27.0788 11.586 27.0386 11.7048 26.9236 11.8256C26.914 11.8352 26.9025 11.8409 26.8891 11.8409C26.8805 11.84 26.8594 11.8342 26.8498 11.8208C26.7894 11.7336 26.5815 11.655 26.3898 11.6684C26.293 11.677 26.1665 11.7135 26.1052 11.84C25.9691 12.1227 26.2 12.3479 26.2087 12.3575L26.9734 13.1222C26.9792 13.127 26.983 13.1337 26.9849 13.1404L27.0568 13.3426C27.2494 13.4826 29.6807 15.2536 29.9845 15.4721C30.1129 15.565 30.066 15.6522 30.0487 15.6762C29.9529 15.8132 29.5293 15.8621 29.006 15.6637C29.0913 15.7279 29.1421 15.7682 29.1709 15.7969C29.1728 15.7969 29.1747 15.7979 29.1776 15.7998L29.1757 15.8017C29.1891 15.8151 29.1967 15.8238 29.2006 15.8324L29.2015 15.8314C29.2015 15.8333 29.2025 15.8343 29.2025 15.8362C29.2044 15.841 29.2054 15.8458 29.2044 15.8496C29.2102 15.9004 29.1996 15.979 29.1316 16.026C29.0032 16.116 28.7262 16.0346 28.2978 15.7806C28.3218 15.8324 28.3208 15.8765 28.2978 15.9119C28.2355 16.0039 28.0276 15.9713 27.8714 15.8851C27.8589 15.8784 27.8474 15.8707 27.8359 15.865L28.0487 16.1458C28.0621 16.164 28.0621 16.1889 28.0467 16.2052C28.0324 16.2234 28.0075 16.2263 27.9873 16.2167L27.5944 16.0011L27.8877 16.5463C27.8963 16.5626 27.8953 16.5818 27.8838 16.5971C27.8733 16.6134 27.8541 16.6221 27.8369 16.6163C27.811 16.6115 27.2485 16.5042 27.03 16.1582C26.9197 16.4563 26.6495 16.6374 26.6361 16.647C26.6275 16.6489 26.6179 16.6518 26.6092 16.6518ZM27.0165 15.9713C27.0367 15.9713 27.0558 15.9848 27.0625 16.0039C27.1603 16.2981 27.5609 16.4419 27.7516 16.4946L27.4325 15.9014C27.4219 15.8822 27.4257 15.8602 27.4411 15.8448C27.4564 15.8295 27.4775 15.8257 27.4986 15.8362L27.8378 16.0212L27.5532 15.6446C27.5436 15.6331 27.5379 15.6254 27.5369 15.6235C27.5225 15.6024 27.5283 15.5727 27.5503 15.5593C27.5705 15.5449 27.6002 15.5487 27.6155 15.5698L27.626 15.5842C27.65 15.6129 27.7286 15.6944 27.9193 15.7988C28.0582 15.8755 28.1991 15.8832 28.2192 15.8563C28.2269 15.8448 28.2106 15.7653 27.9931 15.587C27.973 15.5698 27.9701 15.542 27.9845 15.5219C27.9998 15.5008 28.0285 15.4979 28.0487 15.5094C28.8125 16.0164 29.0242 15.9828 29.0779 15.9455C29.1095 15.9253 29.1115 15.8861 29.1105 15.865C29.077 15.8372 28.9476 15.7365 28.4521 15.3705C28.431 15.3551 28.4262 15.3254 28.4406 15.3043C28.455 15.2833 28.4847 15.2785 28.5067 15.2928C29.2341 15.7902 29.8925 15.7318 29.9692 15.6216C29.9855 15.5995 29.9548 15.5698 29.927 15.5506C29.6127 15.3235 27.0137 13.4308 26.9878 13.4116C26.9801 13.4059 26.9734 13.3982 26.9705 13.3896L26.8977 13.1836L26.1416 12.4274C26.1397 12.4255 25.8512 12.1457 26.018 11.8007C26.0802 11.6703 26.2087 11.5898 26.3802 11.5755C26.569 11.5553 26.7789 11.6243 26.8872 11.723C26.9514 11.6435 26.9725 11.5707 26.9504 11.5007C26.8852 11.287 26.4348 11.1423 26.2662 11.1049C26.2106 11.0819 25.0893 10.6219 24.408 11.6694C23.7247 12.7188 24.3869 13.4634 24.4156 13.4941C24.4252 13.5046 24.429 13.518 24.4281 13.5324C24.4262 13.5458 24.4185 13.5573 24.408 13.5659C24.4041 13.5688 24.0486 13.8218 23.9805 14.1591C24.2815 14.1131 24.6197 13.9081 24.6236 13.9052C24.6475 13.8918 24.6763 13.8985 24.6887 13.9215L25.0922 14.5703L25.2139 14.1745C25.2187 14.1601 25.2283 14.1505 25.2407 14.1448C25.2542 14.1381 25.2685 14.139 25.282 14.1467L26.1215 14.5923C26.1291 14.5961 26.1358 14.6028 26.1406 14.6105C26.1579 14.6383 26.5632 15.3158 26.6907 15.5957C26.7904 15.8142 26.7242 16.2617 26.6821 16.4869C26.7837 16.393 26.9312 16.2272 26.9696 16.0145C26.9734 15.9934 26.9907 15.9771 27.0127 15.9752C27.0146 15.9713 27.0165 15.9713 27.0165 15.9713Z" fill="#263238"/>
<path d="M27.5765 15.6468C27.5554 15.6468 27.5362 15.6325 27.5305 15.6114C27.4069 15.1571 26.7332 14.3914 26.7264 14.3838C26.7092 14.3646 26.7102 14.3368 26.7264 14.3196C26.7456 14.3014 26.7715 14.2994 26.7907 14.3138C27.0667 14.5246 27.8372 15.0738 28.0767 15.0929C28.093 15.0939 28.1314 15.0977 28.1592 15.0977H28.162C28.1266 15.0441 28.0164 14.9271 27.8707 14.7748C27.749 14.6454 27.5889 14.4758 27.3877 14.2573C27.3704 14.2371 27.3704 14.2074 27.3896 14.1902C27.4088 14.1729 27.4385 14.1729 27.4567 14.1902C28.1869 14.9013 28.7313 15.0316 28.9469 15.0527L28.5962 14.6368C28.5789 14.6166 28.5808 14.586 28.6019 14.5697C28.622 14.5515 28.6517 14.5543 28.669 14.5754L29.0887 15.0728C29.1002 15.0862 29.1041 15.1044 29.0974 15.1217C29.0907 15.138 29.0763 15.1495 29.0581 15.1514C29.0379 15.1524 28.6307 15.1964 27.9761 14.747C28.2377 15.023 28.2924 15.0853 28.2627 15.1485C28.2358 15.2051 28.1572 15.1974 28.0691 15.1888C27.8611 15.1715 27.3676 14.8466 27.0417 14.6157C27.2554 14.8869 27.542 15.2913 27.6215 15.5874C27.6292 15.6123 27.6139 15.6392 27.588 15.6459C27.5851 15.6469 27.5803 15.6468 27.5765 15.6468Z" fill="#263238"/>
<path d="M25.6433 11.3963C25.6337 11.3963 25.6241 11.3963 25.6145 11.3954C25.3893 11.3829 25.2302 11.2919 25.2235 11.288C25.2101 11.2804 25.2024 11.267 25.2005 11.2516C25.1986 11.2363 25.2053 11.2219 25.2168 11.2114C25.2206 11.2075 25.5791 10.8961 25.9643 11.1692C25.9844 11.1845 25.9902 11.2133 25.9768 11.2344C25.971 11.2411 25.8637 11.3963 25.6433 11.3963ZM25.3414 11.2373C25.4027 11.2622 25.5014 11.2938 25.6193 11.2995C25.627 11.2995 25.6356 11.3005 25.6423 11.3005C25.7506 11.3005 25.8225 11.2526 25.8618 11.2171C25.6404 11.0906 25.4391 11.1769 25.3414 11.2373Z" fill="#263238"/>
<path d="M25.8838 12.3663C25.8838 12.3663 27.6404 12.2005 28.3908 12.2896C29.4852 11.7548 30.2241 11.7673 30.593 11.6916C30.962 11.6159 31.8274 11.3734 32.2347 11.1568C32.2979 11.5641 31.8398 11.7932 31.8398 11.7932L34.7167 10.5205C34.7167 10.5205 34.2203 11.1952 33.813 11.5009C34.5002 11.1319 35.5572 10.5847 35.5572 10.5847C35.5572 10.5847 35.4048 11.2977 34.6918 11.705C35.4432 11.3236 36.0287 11.0303 36.0287 11.0303C36.0287 11.0303 35.7997 11.7175 35.2525 12.049C35.6722 11.9216 35.7872 11.8708 35.7872 11.8708C35.7872 11.8708 35.5706 12.4822 35.1509 12.647C35.0359 13.016 35.1767 13.6658 32.1724 14.2503C31.7018 14.5944 30.7981 14.81 30.7981 14.81L31.078 14.9758C31.078 14.9758 30.7339 15.1157 30.3525 15.1033C30.4157 15.3074 30.365 15.3198 29.6654 15.294C28.9658 15.2681 26.2163 13.4741 26.2163 13.4741L25.8838 12.3663Z" fill="#FF8F00"/>
<path d="M30.0449 15.3516C29.9462 15.3516 29.8216 15.3478 29.6635 15.342C28.9591 15.3162 26.3017 13.5873 26.1895 13.5145C26.1799 13.5078 26.1723 13.4982 26.1694 13.4886L25.8378 12.3808C25.834 12.3664 25.8359 12.352 25.8445 12.3396C25.8522 12.3281 25.8647 12.3194 25.879 12.3194C25.9499 12.3127 27.6299 12.1584 28.3832 12.2418C29.2447 11.823 29.8801 11.7425 30.3017 11.6889C30.411 11.6745 30.5068 11.663 30.5835 11.6467C30.9342 11.5739 31.8006 11.3362 32.2127 11.1158C32.2261 11.1081 32.2433 11.1091 32.2567 11.1148C32.2711 11.1225 32.2797 11.1349 32.2826 11.1503C32.3114 11.34 32.2404 11.4924 32.1475 11.6055L34.6967 10.4775C34.7168 10.4679 34.7407 10.4747 34.7542 10.4919C34.7676 10.5092 34.7685 10.5331 34.7551 10.5504C34.7398 10.5714 34.4561 10.9557 34.1408 11.2739C34.7819 10.9337 35.5247 10.5475 35.5333 10.5437C35.5515 10.5341 35.5697 10.536 35.585 10.5475C35.6004 10.559 35.6061 10.5772 35.6032 10.5964C35.5984 10.6184 35.5026 11.0487 35.125 11.433C35.6444 11.1704 36.0067 10.9883 36.0067 10.9883C36.023 10.9807 36.0431 10.9816 36.0604 10.995C36.0747 11.0084 36.0805 11.0286 36.0747 11.0468C36.0661 11.0707 35.8974 11.5672 35.5045 11.9208C35.7019 11.8566 35.7662 11.8278 35.7662 11.8278C35.7863 11.8202 35.8045 11.8249 35.8189 11.8364C35.8332 11.8499 35.838 11.87 35.8313 11.8882C35.8227 11.9131 35.6109 12.5015 35.1892 12.6846C35.1816 12.7104 35.1758 12.7392 35.1691 12.7679C35.0781 13.1628 34.941 13.7608 32.1925 14.2974C31.813 14.5715 31.1786 14.7603 30.9218 14.8312L31.1019 14.9376C31.1182 14.9472 31.1269 14.9635 31.1249 14.9827C31.124 15.0009 31.1115 15.0162 31.0952 15.0229C31.0818 15.0287 30.7752 15.1513 30.4148 15.1552C30.4244 15.2012 30.4244 15.2443 30.3957 15.2807C30.3525 15.3334 30.2605 15.3516 30.0449 15.3516ZM26.2557 13.4426C26.4732 13.5835 29.0128 15.2213 29.6664 15.2462C29.9807 15.2567 30.2816 15.2673 30.3199 15.2194C30.3334 15.2021 30.3142 15.1427 30.3056 15.1178C30.3008 15.1024 30.3037 15.0871 30.3132 15.0747C30.3238 15.0612 30.3401 15.0593 30.3535 15.0555C30.6027 15.0584 30.8374 15.0037 30.9639 14.9644L30.7732 14.8514C30.756 14.8408 30.7474 14.8226 30.7502 14.8025C30.7531 14.7833 30.7684 14.768 30.7867 14.7632C30.7962 14.7613 31.6865 14.5447 32.1446 14.2112C32.1504 14.2064 32.1571 14.2035 32.1638 14.2026C34.8615 13.6764 34.9909 13.1149 35.0771 12.744C35.0857 12.7047 35.0953 12.6673 35.1049 12.6328C35.1097 12.6184 35.1202 12.6079 35.1327 12.6022C35.4279 12.4862 35.6205 12.1297 35.7 11.9543C35.6186 11.9821 35.4825 12.0281 35.2669 12.0942C35.2439 12.0981 35.2189 12.0904 35.2084 12.0684C35.1988 12.0463 35.2065 12.0204 35.2285 12.008C35.6214 11.7713 35.8476 11.3362 35.9387 11.1302C35.7336 11.2327 35.2688 11.4665 34.7149 11.7492C34.6928 11.7579 34.6622 11.7512 34.6516 11.7291C34.6392 11.7071 34.6468 11.6774 34.6708 11.6659C35.194 11.3669 35.4087 10.8906 35.4815 10.6817C35.2007 10.8273 34.3948 11.248 33.838 11.5461C33.8179 11.5585 33.7891 11.5509 33.7757 11.5298C33.7613 11.5087 33.7671 11.4799 33.7872 11.4656C34.0689 11.2538 34.3977 10.858 34.5673 10.6433L31.8629 11.8403C31.8399 11.8508 31.8102 11.8393 31.8006 11.8173C31.7891 11.7943 31.7987 11.7655 31.8217 11.754C31.8255 11.7521 32.1973 11.5624 32.1964 11.2356C31.7555 11.4512 30.9438 11.6726 30.6055 11.7425C30.526 11.7598 30.4292 11.7713 30.3171 11.7857C29.9002 11.8393 29.2706 11.9198 28.4157 12.3367C28.4071 12.3396 28.3966 12.3415 28.3899 12.3415C27.7305 12.2619 26.2595 12.3856 25.9499 12.4114L26.2557 13.4426Z" fill="#263238"/>
<path d="M26.7111 13.2673C26.6862 13.2673 26.6651 13.2472 26.6632 13.2223C26.6613 13.1964 26.6824 13.1734 26.7082 13.1715L27.4672 13.1264L27.3398 12.998C27.3216 12.9808 27.3206 12.9539 27.336 12.9348C27.3513 12.9166 27.3762 12.9118 27.3982 12.9233C27.4021 12.9252 27.7155 13.1197 28.1793 13.044C28.2473 13.0335 28.277 13.021 28.2876 13.0143C28.2521 12.9693 28.0528 12.8821 27.841 12.8198C27.818 12.8121 27.8027 12.7881 27.8084 12.7632C27.8142 12.7383 27.8381 12.7278 27.863 12.7258C27.8688 12.7268 28.4141 12.8159 28.7917 12.8658C28.8338 12.8725 28.8559 12.8725 28.8702 12.8696C28.8453 12.8236 28.7303 12.722 28.6057 12.6348C28.5856 12.6204 28.5789 12.5926 28.5914 12.5716C28.6048 12.5495 28.6335 12.5409 28.6537 12.5533C28.6575 12.5543 29.0121 12.7335 29.4452 12.6013C29.588 12.5572 29.5967 12.5217 29.5967 12.5217C29.5967 12.4968 29.4922 12.4355 29.3695 12.4C29.3485 12.3943 29.3331 12.3741 29.335 12.3511C29.336 12.3291 29.3532 12.3099 29.3753 12.3061C29.3954 12.3032 31.4213 11.9736 31.8162 11.7512C31.8372 11.7388 31.867 11.7455 31.8813 11.7704C31.8938 11.7934 31.8861 11.8231 31.8622 11.8356C31.5181 12.0291 30.0672 12.2869 29.5622 12.3732C29.6302 12.4096 29.6925 12.4594 29.6935 12.5208C29.6944 12.6147 29.5679 12.6636 29.474 12.6933C29.2392 12.7651 29.0245 12.7527 28.8693 12.722C28.9507 12.8006 28.9833 12.8638 28.9661 12.9098C28.9412 12.975 28.8501 12.9702 28.7792 12.9616C28.624 12.9415 28.439 12.9137 28.2751 12.8888C28.347 12.9319 28.392 12.9779 28.3892 13.0248C28.3844 13.1006 28.2837 13.1264 28.1956 13.1408C27.9407 13.1801 27.726 13.1466 27.5775 13.1015L27.61 13.1351C27.6235 13.1485 27.6282 13.1676 27.6215 13.1858C27.6148 13.2041 27.5985 13.2156 27.5794 13.2165L26.714 13.2683L26.7111 13.2673Z" fill="#263238"/>
<path d="M29.728 14.795H29.0016C28.9757 14.795 28.9537 14.7739 28.9537 14.747C28.9537 14.7202 28.9748 14.6991 29.0016 14.6991H29.5076C29.2383 14.563 28.6901 14.2516 27.7903 13.5884C27.7692 13.5731 27.7644 13.5434 27.7788 13.5223C27.7931 13.5012 27.8228 13.4955 27.8449 13.5108C29.1712 14.4413 30.1497 14.3647 30.5503 14.2698C30.0117 14.2008 29.9992 14.1941 29.2383 13.8155C29.0505 13.7216 28.8157 13.6057 28.5148 13.46C28.4496 13.4312 28.3825 13.3996 28.3164 13.3632C28.2934 13.3507 28.2848 13.323 28.2963 13.3C28.3087 13.276 28.3375 13.2655 28.3595 13.2789C28.4285 13.3124 28.4956 13.344 28.5588 13.3757C29.0955 13.6124 29.4673 13.5961 29.5181 13.507C29.5421 13.4638 29.497 13.3354 29.1664 13.1342C29.1463 13.1207 29.1386 13.0949 29.1473 13.0738C29.1578 13.0517 29.1808 13.0412 29.2057 13.0479C29.7836 13.2271 30.189 13.2281 30.2723 13.1888C30.2493 13.1667 30.1583 13.1016 29.8286 13.0115C29.8037 13.0048 29.7884 12.9799 29.7941 12.954C29.8008 12.93 29.8171 12.9137 29.8507 12.9185C30.1334 12.9732 30.8224 12.9741 30.9949 12.9281C30.948 12.9061 30.8368 12.8668 30.5694 12.8083C30.5455 12.8026 30.5282 12.7796 30.532 12.7547C30.5359 12.7297 30.5579 12.7173 30.5838 12.7135C31.1368 12.7547 31.6466 12.632 31.9082 12.5505L30.4075 12.3253C30.3816 12.3205 30.3634 12.2966 30.3672 12.2697C30.371 12.2467 30.3912 12.2295 30.4151 12.2295C30.417 12.2295 30.4199 12.2295 30.4228 12.2295L32.1162 12.4844C32.1363 12.4882 32.1535 12.5045 32.1564 12.5266C32.1593 12.5486 32.1468 12.5687 32.1267 12.5764C32.1028 12.587 31.6092 12.7863 30.9729 12.815C31.1166 12.8677 31.1272 12.907 31.1185 12.9463C31.0955 13.0632 30.5972 13.0671 30.2273 13.047C30.3586 13.1092 30.3682 13.1514 30.3739 13.1735C30.3806 13.2012 30.372 13.23 30.35 13.2511C30.2589 13.3364 29.8794 13.3162 29.4453 13.2127C29.6465 13.3843 29.636 13.4964 29.6034 13.5539C29.544 13.6584 29.3638 13.6881 29.1204 13.6507C29.1789 13.6785 29.2316 13.7063 29.2833 13.7312C30.0423 14.1078 30.0423 14.1078 30.5924 14.1787L30.7783 14.2027C30.7985 14.2056 30.8157 14.2228 30.8195 14.243C30.8224 14.2631 30.8119 14.2842 30.7927 14.2937C30.7525 14.3139 29.9772 14.6723 28.7179 14.1193C29.4252 14.5812 29.7405 14.7001 29.7453 14.702C29.7663 14.7097 29.7798 14.7317 29.775 14.7557C29.7702 14.7777 29.751 14.795 29.728 14.795Z" fill="#263238"/>
<path d="M31.2527 13.8831C30.4774 13.8831 29.9474 13.7777 29.935 13.7749C29.9091 13.7691 29.8918 13.7442 29.8976 13.7183C29.9024 13.6924 29.9283 13.6704 29.9541 13.6809C29.9848 13.6876 32.9633 14.2789 35.1215 12.6086C35.1416 12.5904 35.1713 12.5961 35.1876 12.6172C35.2039 12.6383 35.201 12.668 35.179 12.6833C33.8986 13.6761 32.3375 13.8831 31.2527 13.8831Z" fill="#263238"/>
<path d="M32.82 13.0494C32.7989 13.0494 32.7787 13.035 32.773 13.013C32.7663 12.9881 32.7826 12.9612 32.8085 12.9545C32.8267 12.9507 34.5871 12.506 35.2215 12.0096C35.2436 11.9923 35.2733 11.9971 35.2886 12.0173C35.3059 12.0383 35.302 12.069 35.281 12.0843C34.6302 12.5942 32.9052 13.0293 32.8305 13.0484C32.8276 13.0494 32.8238 13.0494 32.82 13.0494Z" fill="#263238"/>
<path d="M32.3496 12.834C32.3313 12.834 32.3141 12.8234 32.3064 12.8062C32.2949 12.7832 32.3055 12.7535 32.3294 12.7439L34.6716 11.6619C34.6927 11.6485 34.7243 11.66 34.7339 11.6849C34.7454 11.7079 34.7348 11.7376 34.7109 11.7472L32.3687 12.8292C32.3639 12.833 32.3563 12.834 32.3496 12.834Z" fill="#263238"/>
<path d="M32.1584 12.2741C32.1392 12.2741 32.1229 12.2636 32.1143 12.2463C32.1037 12.2224 32.1152 12.1927 32.1382 12.1831L33.7933 11.4576C33.8192 11.4481 33.847 11.4586 33.8565 11.4816C33.8671 11.5056 33.8556 11.5353 33.8326 11.5448L32.1775 12.2703C32.1708 12.2732 32.1641 12.2741 32.1584 12.2741Z" fill="#263238"/>
</svg>
